<svg xmlns="http://www.w3.org/2000/svg" viewBox="0 0 65.15 70.47"><g id="Layer_2" data-name="Layer 2"><g id="Layer_1-2" data-name="Layer 1"><path d="M0,70.47l.11-4.3C1,66,2,65.76,3.22,65.58a23.46,23.46,0,0,0,5.7-1.4,7.08,7.08,0,0,0,1-2.36A67,67,0,0,0,10.31,53l-.1-22.83q0-3.54-.38-18.53a17.54,17.54,0,0,0-.54-5,1.28,1.28,0,0,0-.54-.54,6.67,6.67,0,0,0-3.22-.7c-.68,0-2.43-.23-5.26-.59L.11,1l12-.27L29.7.11,31.8.05c.43,0,.86,0,1.29,0l2.84.05h3.44a32.76,32.76,0,0,1,8.86,1.24,24.6,24.6,0,0,1,4.41,1.8,17,17,0,0,1,4.75,3.49,13.69,13.69,0,0,1,3,4.75,16,16,0,0,1,1,5.59,12,12,0,0,1-1.45,5.88,15.56,15.56,0,0,1-4.41,4.81,51.67,51.67,0,0,1-6.93,3.54Q56.67,33,60.91,37.84a16.05,16.05,0,0,1,4.24,10.82,22.63,22.63,0,0,1-1.34,7.41,14.69,14.69,0,0,1-3.28,5.38,22.46,22.46,0,0,1-6.47,4.94,37,37,0,0,1-9.43,2.74,57.73,57.73,0,0,1-9.13.53l-9.13-.21q-5.81,0-13.8.54C11.06,70.06,6.88,70.22,0,70.47ZM25,29.7a33.76,33.76,0,0,0,5,.32q8.06,0,12.19-3t4.14-10.28a11,11,0,0,0-3.92-8.6Q38.56,4.72,30.67,4.73a40.09,40.09,0,0,0-6,.59c0,.82,0,2,.11,3.54Q25,13.44,25,21.65L25,26.16C25,27,25,28.13,25,29.7Zm.64,34.22a17.19,17.19,0,0,0,6.5,1.45,23.13,23.13,0,0,0,10-1.86,12,12,0,0,0,5.64-5.18A17.62,17.62,0,0,0,49.58,50a15.55,15.55,0,0,0-1.94-8.27A13.54,13.54,0,0,0,41.14,36q-3.81-1.49-11.44-1.48A14.91,14.91,0,0,0,25,35v6.6l-.05,8,.16,12.36A6.55,6.55,0,0,0,25.67,63.92Z"/></g></g></svg>