<svg xmlns="http://www.w3.org/2000/svg" viewBox="0 0 140 92.04"><defs><style>.cls-1{fill:#fff;stroke:#000;stroke-miterlimit:10;stroke-width:10px;}</style></defs><g id="Layer_2" data-name="Layer 2"><g id="Layer_1-2" data-name="Layer 1"><path d="M.58,1H59.22V19.88H53.91a52.2,52.2,0,0,0-2.36-7.37,14.83,14.83,0,0,0-2.46-4.12,7.78,7.78,0,0,0-2.8-2,12.88,12.88,0,0,0-4.47-.59H34.94v55.5a29.59,29.59,0,0,0,.35,5.09,8.22,8.22,0,0,0,1.09,3,4.87,4.87,0,0,0,2,1.73,17.7,17.7,0,0,0,3.91,1.22V75H17.49V72.34a27.79,27.79,0,0,0,2.87-.81,6.77,6.77,0,0,0,2-1.06,4.76,4.76,0,0,0,1.3-1.59,9.21,9.21,0,0,0,.82-2.66,31.59,31.59,0,0,0,.29-4.93V5.79H18a15.06,15.06,0,0,0-4.21.49,6.72,6.72,0,0,0-3.06,2A14.68,14.68,0,0,0,8.14,12.7a49.24,49.24,0,0,0-2.2,7.18H.58Z"/><line class="cls-1" x1="72" y1="32.35" x2="140" y2="32.35"/><line class="cls-1" y1="87.04" x2="140" y2="87.04"/><line class="cls-1" x1="72" y1="5" x2="140" y2="5"/><line class="cls-1" x1="72" y1="59.69" x2="140" y2="59.69"/></g></g></svg>