<svg xmlns="http://www.w3.org/2000/svg" viewBox="0 0 99.52 93.31"><g id="Layer_2" data-name="Layer 2"><g id="Layer_1-2" data-name="Layer 1"><path d="M0,0H99.52V23.79h-9a54.49,54.49,0,0,0-4-9.3A18.37,18.37,0,0,0,82.32,9.3a13.64,13.64,0,0,0-4.74-2.53A28.54,28.54,0,0,0,70,6H58.31V76a27.36,27.36,0,0,0,.6,6.42,8.89,8.89,0,0,0,1.84,3.8,8.21,8.21,0,0,0,3.36,2.18A38.23,38.23,0,0,0,70.73,90v3.35h-42V90c1.84-.32,3.46-.66,4.87-1A13.5,13.5,0,0,0,37,87.6a7.1,7.1,0,0,0,2.21-2,9.8,9.8,0,0,0,1.38-3.35,29.29,29.29,0,0,0,.5-6.22V6H29.52a34.14,34.14,0,0,0-7.12.61,12.43,12.43,0,0,0-5.2,2.56,18.62,18.62,0,0,0-4.37,5.54,50.78,50.78,0,0,0-3.72,9.06H0Z"/></g></g></svg>