<svg xmlns="http://www.w3.org/2000/svg" viewBox="0 0 27.29 69.77"><g id="Layer_2" data-name="Layer 2"><g id="Layer_1-2" data-name="Layer 1"><path d="M2.36,35.56,0,33.73a41.72,41.72,0,0,1,9.79-8.4q4.43-2.5,7.54-2.5a4.06,4.06,0,0,1,2.63.75,2.52,2.52,0,0,1,.91,2q0,1.56-3.48,13.21-5.69,19.06-5.68,23a2.07,2.07,0,0,0,.37,1.26,1,1,0,0,0,.81.51c1.15,0,4.08-2.21,8.81-6.66l2.09,2q-7.35,6.93-10.74,8.87a12,12,0,0,1-5.53,1.93,3.86,3.86,0,0,1-3-1.18,4.6,4.6,0,0,1-1.1-3.28q0-6.7,8.05-32.81a7.76,7.76,0,0,0,.38-2.21c0-.71-.32-1.07-1-1.07a4.77,4.77,0,0,0-2.44.86A55,55,0,0,0,2.36,35.56ZM23.47,0a3.68,3.68,0,0,1,2.74,1.1,3.88,3.88,0,0,1,1.08,2.82,6,6,0,0,1-1.64,4.16A4.9,4.9,0,0,1,22,9.88a3.56,3.56,0,0,1-2.69-1.12,4.15,4.15,0,0,1-1.07-3,5.85,5.85,0,0,1,1.56-4.11A4.84,4.84,0,0,1,23.47,0Z"/></g></g></svg>