<svg xmlns="http://www.w3.org/2000/svg" viewBox="0 0 152.64 152.64"><g id="Layer_2" data-name="Layer 2"><g id="Layer_1-2" data-name="Layer 1"><path d="M145.91,94.43a6.83,6.83,0,0,0-.81-1L116.21,64.57h0a.43.43,0,0,0-.1-.09,3.88,3.88,0,0,0-.42-.39l-.3-.22-.27-.2-.37-.23-.23-.14-.39-.18c-.09,0-.17-.09-.26-.12l-.36-.14-.31-.11-.32-.08-.38-.1-.28,0a3,3,0,0,0-.43-.06l-.27,0-.43,0h-.33l-.38,0a5.21,5.21,0,0,0-.55.08l-.15,0h0L44.05,75l-25.7-25.7a22.35,22.35,0,0,1,31-31L75,44.05,72.12,59.34,87.55,56.4,90.09,43v0h0a.28.28,0,0,0,0-.09,6.17,6.17,0,0,0,.09-.62c0-.12,0-.23,0-.35s0-.23,0-.35,0-.29,0-.43,0-.18,0-.28,0-.28-.06-.42,0-.19,0-.28-.06-.25-.09-.38,0-.21-.08-.32-.08-.21-.11-.31-.09-.25-.14-.37l-.12-.25c-.06-.13-.12-.26-.19-.39a1.76,1.76,0,0,0-.14-.23c-.07-.13-.14-.25-.22-.37l-.2-.28a3.15,3.15,0,0,1-.22-.29c-.13-.15-.26-.3-.4-.44a.6.6,0,0,0-.08-.08v0h0L59.18,7.54a8.41,8.41,0,0,0-1-.82A37,37,0,0,0,6.72,58.21a8.41,8.41,0,0,0,.82,1L36.46,88.09l0,0c.17.16.34.32.52.46l.12.1.42.3a2.26,2.26,0,0,0,.26.16l.31.19.29.15.31.14.29.12.37.13.26.08.44.11.2,0a5.4,5.4,0,0,0,.6.09h.06c.22,0,.45,0,.68,0l.7,0,.4-.06.28,0h0l65.56-12.48,25.7,25.7a22.35,22.35,0,0,1-31,31l-25.7-25.7,2.85-15L65,96.53l-2.49,13.08v0h0s0,.06,0,.09c0,.2-.06.41-.08.61s0,.24,0,.36,0,.23,0,.35,0,.28,0,.43a2.45,2.45,0,0,0,0,.27,3,3,0,0,0,.06.43c0,.09,0,.18,0,.28s.06.25.1.38.05.21.08.32.07.2.11.31.09.24.14.36.08.17.12.26l.18.39c0,.08.1.15.14.23l.23.37.2.27.22.3.4.44.08.08h0v0L93.46,145.1a6.83,6.83,0,0,0,1,.81,37,37,0,0,0,51.48-51.48Z"/></g></g></svg>