<svg xmlns="http://www.w3.org/2000/svg" viewBox="0 0 66.48 63.59"><g id="Layer_2" data-name="Layer 2"><g id="Layer_1-2" data-name="Layer 1"><path d="M25.65,10.47a2.81,2.81,0,0,1,1.57,1.32C28.44,13.93,29,15.53,29,16.58l-.16.66q-.82.57-3.81,2.56Q19.94,23.1,18,25.9a12.51,12.51,0,0,0-2.82,7.43q0,5.2,6.46,8a17,17,0,0,1,6,4A9.47,9.47,0,0,1,30,51.59,11.48,11.48,0,0,1,26.4,60a11.85,11.85,0,0,1-8.61,3.6Q11,63.59,5.5,57.48T0,42A31.27,31.27,0,0,1,7.78,21.13Q15.55,12,25.65,10.47Z"/><path d="M62.09,0a2.81,2.81,0,0,1,1.57,1.32c1.22,2.15,1.83,3.74,1.83,4.79l-.17.66c-.55.38-1.82,1.24-3.81,2.56q-5.13,3.3-7.11,6.1a12.53,12.53,0,0,0-2.82,7.43q0,5.2,6.46,8a16.75,16.75,0,0,1,6,4,9.43,9.43,0,0,1,2.4,6.28,11.44,11.44,0,0,1-3.64,8.4,11.85,11.85,0,0,1-8.61,3.6q-6.78,0-12.29-6.11t-5.5-15.53a31.27,31.27,0,0,1,7.78-20.82Q52,1.49,62.09,0Z"/></g></g></svg>