<svg xmlns="http://www.w3.org/2000/svg" viewBox="0 0 99.52 71.66"><g id="Layer_2" data-name="Layer 2"><g id="Layer_1-2" data-name="Layer 1"><path d="M0,0H99.52V18.27h-9a37.58,37.58,0,0,0-4-7.14,15.73,15.73,0,0,0-4.18-4A15.34,15.34,0,0,0,77.58,5.2,36.36,36.36,0,0,0,70,4.62H58.31V58.37a16.43,16.43,0,0,0,.6,4.94,6.32,6.32,0,0,0,1.84,2.91,8.68,8.68,0,0,0,3.36,1.68,48.68,48.68,0,0,0,6.62,1.18v2.58h-42V69.08c1.84-.24,3.46-.5,4.87-.78a16.28,16.28,0,0,0,3.45-1,6.8,6.8,0,0,0,2.21-1.55,6.65,6.65,0,0,0,1.38-2.57,17.4,17.4,0,0,0,.5-4.78V4.62H29.52a44.74,44.74,0,0,0-7.12.47,14.16,14.16,0,0,0-5.2,2,15.79,15.79,0,0,0-4.37,4.25,34.9,34.9,0,0,0-3.72,7H0Z"/></g></g></svg>